<svg width="32" height="32" viewBox="0 0 32 32" fill="none" xmlns="http://www.w3.org/2000/svg">
<path d="M27.0954 29.3333H10.4721C9.27903 29.3333 8.30542 28.3597 8.30542 27.1666V4.83336C8.30542 3.64028 9.27903 2.66666 10.4721 2.66666H22.6144L29.2621 9.3064V27.1666C29.2621 28.3597 28.2845 29.3333 27.0954 29.3333Z" fill="#EF4836"/>
<path d="M22.6144 2.66666H22.1196V8.6919C22.1196 9.33034 22.6423 9.85306 23.2808 9.85306H29.2621V9.3064L22.6144 2.66666Z" fill="#E82E21"/>
<path d="M22.7581 13.3006H5.27688C5.04545 13.3006 4.85791 13.4882 4.85791 13.7196V20.7344C4.85791 20.9658 5.04545 21.1534 5.27688 21.1534H22.7581C22.9895 21.1534 23.177 20.9658 23.177 20.7344V13.7196C23.177 13.4882 22.9895 13.3006 22.7581 13.3006Z" fill="white"/>
<path d="M22.758 12.4387H5.27687C4.5706 12.4387 4 13.0133 4 13.7156V20.7304C4 21.4367 4.57459 22.0073 5.27687 22.0073H22.758C23.4643 22.0073 24.0349 21.4327 24.0349 20.7304V13.7196C24.0389 13.0133 23.4643 12.4387 22.758 12.4387ZM23.177 20.7344C23.177 20.9658 22.9895 21.1534 22.758 21.1534H5.27687C5.04544 21.1534 4.8579 20.9658 4.8579 20.7344V13.7196C4.8579 13.4881 5.04544 13.3006 5.27687 13.3006H22.758C22.9895 13.3006 23.177 13.4881 23.177 13.7196V20.7344Z" fill="#EF4836"/>
<path d="M7.52747 18.4719C7.85467 18.4719 8.10606 18.7233 8.10606 19.0465C8.10606 19.3697 7.85467 19.6211 7.52747 19.6211C7.21225 19.6211 6.95288 19.3697 6.95288 19.0465C6.95288 18.7233 7.21225 18.4719 7.52747 18.4719Z" fill="#EF4836"/>
<path d="M8.84017 15.1441C8.84017 14.777 9.02771 14.6094 9.37885 14.6094H10.7236C11.7091 14.6094 12.4154 15.2798 12.4154 16.2574C12.4154 17.1831 11.6932 17.8854 10.7595 17.8854H9.86566V19.0944C9.86566 19.4495 9.69009 19.6171 9.35092 19.6171C9.00377 19.6171 8.83618 19.4495 8.83618 19.0944V15.1441H8.84017ZM9.86965 15.6389V16.8559H10.7395C11.1186 16.8559 11.37 16.6245 11.37 16.2494C11.37 15.8623 11.1106 15.6389 10.6438 15.6389H9.86965Z" fill="#EF4836"/>
<path d="M13.2733 15.196C13.2733 14.8089 13.4808 14.6174 13.9157 14.6174H15.0928C16.4655 14.6174 17.1637 15.8903 17.1637 17.1392C17.1637 18.3961 16.3218 19.6171 14.9691 19.6171H13.8159C13.405 19.6171 13.2693 19.5413 13.2693 19.0785V15.196H13.2733ZM14.3107 15.6469V18.5877H14.9492C15.7033 18.5877 16.1063 17.8654 16.1063 17.1392C16.1063 16.3811 15.7472 15.6469 15.033 15.6469H14.3107Z" fill="#EF4836"/>
<path d="M17.9659 15.196C17.9659 14.8089 18.1534 14.6174 18.5046 14.6174H20.2603C20.6154 14.6174 20.783 14.777 20.783 15.1321C20.783 15.4713 20.6154 15.6469 20.2603 15.6469H18.9994V16.6245H19.8892C20.2363 16.6245 20.396 16.8 20.396 17.1472C20.396 17.4864 20.2363 17.6619 19.8892 17.6619H18.9994V19.1463C18.9994 19.4535 18.8238 19.6171 18.4767 19.6171C18.1415 19.6171 17.9619 19.4575 17.9619 19.1463V15.196H17.9659Z" fill="#EF4836"/>
</svg>
