<svg width="32" height="32" viewBox="0 0 32 32" fill="none" xmlns="http://www.w3.org/2000/svg">
<path d="M27.0954 29.3333H10.4721C9.27903 29.3333 8.30542 28.3597 8.30542 27.1666V4.83336C8.30542 3.64028 9.27903 2.66666 10.4721 2.66666H22.6144L29.2621 9.3064V27.1666C29.2621 28.3597 28.2845 29.3333 27.0954 29.3333Z" fill="#2AC96E"/>
<path d="M22.6144 2.66666H22.1196V8.6919C22.1196 9.33034 22.6423 9.85306 23.2808 9.85306H29.2621V9.3064L22.6144 2.66666Z" fill="#1AB750"/>
<path d="M22.7581 13.3006H5.27688C5.04545 13.3006 4.85791 13.4882 4.85791 13.7196V20.7344C4.85791 20.9658 5.04545 21.1534 5.27688 21.1534H22.7581C22.9895 21.1534 23.177 20.9658 23.177 20.7344V13.7196C23.177 13.4882 22.9895 13.3006 22.7581 13.3006Z" fill="white"/>
<path d="M22.758 12.4387H5.27687C4.5706 12.4387 4 13.0133 4 13.7156V20.7304C4 21.4367 4.57459 22.0073 5.27687 22.0073H22.758C23.4643 22.0073 24.0349 21.4327 24.0349 20.7304V13.7196C24.0389 13.0133 23.4643 12.4387 22.758 12.4387ZM23.177 20.7344C23.177 20.9658 22.9895 21.1534 22.758 21.1534H5.27687C5.04544 21.1534 4.8579 20.9658 4.8579 20.7344V13.7196C4.8579 13.4882 5.04544 13.3006 5.27687 13.3006H22.758C22.9895 13.3006 23.177 13.4882 23.177 13.7196V20.7344Z" fill="#2AC96E"/>
<path d="M7.52332 18.4719C7.85052 18.4719 8.10191 18.7233 8.10191 19.0465C8.10191 19.3697 7.85052 19.6211 7.52332 19.6211C7.2081 19.6211 6.94873 19.3697 6.94873 19.0465C6.94873 18.7233 7.2081 18.4719 7.52332 18.4719Z" fill="#2AC96E"/>
<path d="M10.1889 16.8998L9.13942 15.4354C9.0676 15.3316 9.03568 15.2239 9.03568 15.1122C9.03568 14.8169 9.27509 14.6094 9.54244 14.6094C9.71801 14.6094 9.86564 14.6812 9.98136 14.8329L10.8033 15.9781C11.0468 15.591 11.2941 15.2319 11.5296 14.8568C11.6333 14.6892 11.773 14.6054 11.9685 14.6054C12.2318 14.6054 12.4753 14.8289 12.4753 15.1202C12.4753 15.2279 12.4353 15.3316 12.3795 15.4234L11.4298 16.832L12.7027 18.7832C12.7865 18.9109 12.8304 19.0346 12.8304 19.1623C12.8304 19.4775 12.6748 19.6251 12.3675 19.6251C12.176 19.6251 12.0283 19.5413 11.8927 19.3658L10.8113 17.7816L9.80579 19.3538C9.69007 19.5413 9.53046 19.6251 9.32297 19.6251C9.01972 19.6251 8.86011 19.4655 8.86011 19.1543C8.86011 19.0266 8.90001 18.9029 8.96784 18.7872L10.1889 16.8998Z" fill="#2AC96E"/>
<path d="M13.5845 15.1241C13.5845 14.769 13.76 14.6014 14.0912 14.6014C14.4464 14.6014 14.614 14.769 14.614 15.1241V18.5877H16.23C16.5851 18.5877 16.7527 18.7632 16.7527 19.0944C16.7527 19.4495 16.5851 19.6171 16.23 19.6171H14.179C13.78 19.6171 13.5885 19.3977 13.5885 18.9787V15.1241H13.5845Z" fill="#2AC96E"/>
<path d="M18.8876 15.5351C18.6242 15.5351 18.4566 15.6189 18.4566 15.9022C18.4566 16.2175 18.8477 16.3132 19.2467 16.5087C20.0248 16.8878 20.5794 17.2429 20.5794 18.033C20.5794 19.0745 19.8133 19.6929 18.8237 19.6929C18.3848 19.6929 17.9858 19.5692 17.6346 19.3378C17.4351 19.2101 17.3394 19.0425 17.3394 18.8311C17.3394 18.4919 17.5069 18.3363 17.8421 18.3363C17.9698 18.3363 18.1015 18.3762 18.2212 18.444C18.3968 18.5517 18.6202 18.6236 18.8277 18.6236C19.1828 18.6236 19.4901 18.436 19.4901 18.0689C19.4901 17.8495 19.3145 17.7018 18.7998 17.4624C18.1494 17.1592 17.3793 16.7921 17.3793 15.9262C17.3793 15.2039 17.9858 14.4658 18.8995 14.4658C19.3065 14.4658 19.6976 14.5934 20.0208 14.8408C20.2083 14.9765 20.3121 15.1441 20.3121 15.3436C20.3121 15.607 20.1006 15.8823 19.8053 15.8823C19.6457 15.8823 19.514 15.8184 19.3983 15.7227C19.2347 15.607 19.0751 15.5351 18.8876 15.5351Z" fill="#2AC96E"/>
</svg>
