<svg width="20" height="20" viewBox="0 0 20 20" fill="none" xmlns="http://www.w3.org/2000/svg">
<g clip-path="url(#clip0_3247_7957)">
<path d="M9.99992 6.66668C8.15825 6.66668 6.66659 8.15834 6.66659 10C6.66659 11.8417 8.15825 13.3333 9.99992 13.3333C11.8416 13.3333 13.3333 11.8417 13.3333 10C13.3333 8.15834 11.8416 6.66668 9.99992 6.66668ZM17.4499 9.16668C17.2612 7.47678 16.5034 5.90129 15.301 4.69892C14.0986 3.49655 12.5232 2.73877 10.8333 2.55001V1.66668C10.8333 1.20834 10.4583 0.833344 9.99992 0.833344C9.54159 0.833344 9.16659 1.20834 9.16659 1.66668V2.55001C7.47669 2.73877 5.9012 3.49655 4.69883 4.69892C3.49646 5.90129 2.73868 7.47678 2.54992 9.16668H1.66659C1.20825 9.16668 0.833252 9.54168 0.833252 10C0.833252 10.4583 1.20825 10.8333 1.66659 10.8333H2.54992C2.73868 12.5232 3.49646 14.0987 4.69883 15.3011C5.9012 16.5035 7.47669 17.2613 9.16659 17.45V18.3333C9.16659 18.7917 9.54159 19.1667 9.99992 19.1667C10.4583 19.1667 10.8333 18.7917 10.8333 18.3333V17.45C12.5232 17.2613 14.0986 16.5035 15.301 15.3011C16.5034 14.0987 17.2612 12.5232 17.4499 10.8333H18.3333C18.7916 10.8333 19.1666 10.4583 19.1666 10C19.1666 9.54168 18.7916 9.16668 18.3333 9.16668H17.4499ZM9.99992 15.8333C6.77492 15.8333 4.16659 13.225 4.16659 10C4.16659 6.77501 6.77492 4.16668 9.99992 4.16668C13.2249 4.16668 15.8333 6.77501 15.8333 10C15.8333 13.225 13.2249 15.8333 9.99992 15.8333Z" fill="#333333"/>
</g>
<defs>
<clipPath id="clip0_3247_7957">
<rect width="20" height="20" fill="white"/>
</clipPath>
</defs>
</svg>
