<svg width="20" height="20" viewBox="0 0 20 20" fill="none" xmlns="http://www.w3.org/2000/svg">
<path d="M1.84441 11.7167C1.60022 10.5629 1.61011 9.39524 1.84511 8.28364C2.77004 8.39258 3.57737 8.08625 3.84136 7.44892C4.10534 6.81159 3.75107 6.02413 3.02004 5.44712C3.6399 4.49491 4.45857 3.66225 5.44709 3.01907C6.02415 3.75049 6.81185 4.105 7.44933 3.84094C8.08682 3.57689 8.39308 2.76923 8.28398 1.844C9.43775 1.5998 10.6054 1.60969 11.7171 1.84469C11.6082 2.76963 11.9144 3.57695 12.5518 3.84094C13.1891 4.10494 13.9766 3.75066 14.5536 3.01963C15.5057 3.63949 16.3384 4.45816 16.9816 5.44668C16.2502 6.02374 15.8957 6.81144 16.1598 7.44892C16.4238 8.0864 17.2315 8.39274 18.1567 8.28356C18.4009 9.43733 18.391 10.605 18.156 11.7167C17.2311 11.6077 16.4238 11.9141 16.1598 12.5513C15.8958 13.1887 16.25 13.9762 16.9811 14.5532C16.3613 15.5053 15.5425 16.338 14.554 16.9812C13.977 16.2498 13.1892 15.8952 12.5518 16.1593C11.9143 16.4234 11.608 17.2311 11.7172 18.1562C10.5633 18.4005 9.39567 18.3906 8.28406 18.1556C8.393 17.2307 8.08666 16.4233 7.44933 16.1593C6.81201 15.8953 6.02454 16.2496 5.44753 16.9807C4.49532 16.3608 3.66267 15.5422 3.01948 14.5536C3.7509 13.9766 4.10541 13.1888 3.84136 12.5513C3.5773 11.9139 2.76963 11.6076 1.84441 11.7167ZM3.33394 10.1753C4.25045 10.429 5.00679 11.0097 5.38116 11.9136C5.75552 12.8173 5.63137 13.7628 5.16266 14.5902C5.24312 14.675 5.3258 14.7577 5.41058 14.838C6.23798 14.3693 7.18342 14.2452 8.08713 14.6196C8.99083 14.9939 9.57158 15.7502 9.82533 16.6666C9.94208 16.6697 10.0589 16.6698 10.1757 16.6667C10.4294 15.7502 11.0102 14.9939 11.914 14.6196C12.8177 14.2452 13.7633 14.3693 14.5907 14.8381C14.6754 14.7576 14.758 14.6749 14.8383 14.5901C14.3698 13.7627 14.2456 12.8172 14.6199 11.9136C14.9942 11.0098 15.7506 10.4291 16.667 10.1754C16.6702 10.0587 16.6703 9.94174 16.6672 9.82491C15.7507 9.57133 14.9943 8.99049 14.6199 8.08672C14.2456 7.18294 14.3698 6.23744 14.8384 5.41003C14.758 5.32525 14.6753 5.24266 14.5905 5.16232C13.7632 5.63097 12.8177 5.75508 11.914 5.38074C11.0102 5.00641 10.4295 4.25013 10.1758 3.33369C10.0591 3.33054 9.94217 3.33049 9.82533 3.33353C9.57167 4.25004 8.99092 5.00639 8.08713 5.38074C7.18335 5.7551 6.23786 5.63095 5.41043 5.16224C5.32566 5.24271 5.24307 5.32539 5.16273 5.41018C5.63138 6.23757 5.75549 7.183 5.38116 8.08672C5.00682 8.99041 4.25054 9.57124 3.3341 9.82491C3.33096 9.94166 3.3309 10.0585 3.33394 10.1753ZM10.0006 12.5002C8.61983 12.5002 7.50055 11.3808 7.50055 10.0002C7.50055 8.61941 8.61983 7.50014 10.0006 7.50014C11.3812 7.50014 12.5006 8.61941 12.5006 10.0002C12.5006 11.3808 11.3812 12.5002 10.0006 12.5002ZM10.0006 10.8335C10.4607 10.8335 10.8339 10.4604 10.8339 10.0002C10.8339 9.53991 10.4607 9.16683 10.0006 9.16683C9.54033 9.16683 9.16725 9.53991 9.16725 10.0002C9.16725 10.4604 9.54033 10.8335 10.0006 10.8335Z" fill="#333333"/>
</svg>
