<svg width="20" height="20" viewBox="0 0 20 20" fill="none" xmlns="http://www.w3.org/2000/svg">
<path d="M10.5703 3.35446C10.3823 3.33861 10.1921 3.33048 9.99996 3.33048C6.31806 3.33048 3.33329 6.31525 3.33329 9.99717C3.33329 13.6791 6.31806 16.6638 9.99996 16.6638C13.6819 16.6638 16.6666 13.6791 16.6666 9.99717C16.6666 9.805 16.6585 9.61483 16.6425 9.42683C16.583 8.72033 16.4127 8.03673 16.14 7.39443L17.3901 6.14252C17.6692 6.67649 17.8921 7.24448 18.051 7.83864C18.1844 8.3385 18.2715 8.85175 18.3102 9.37325C18.3255 9.57925 18.3333 9.78725 18.3333 9.99717C18.3333 14.5995 14.6023 18.3305 9.99996 18.3305C5.39758 18.3305 1.66663 14.5995 1.66663 9.99717C1.66663 5.39477 5.39758 1.66382 9.99996 1.66382C10.2098 1.66382 10.4179 1.67157 10.6239 1.68682C11.1454 1.72557 11.6586 1.81274 12.1581 1.9464C12.7526 2.10497 13.3206 2.32789 13.8546 2.60697L12.6039 3.85768C11.9604 3.58442 11.2767 3.41412 10.5703 3.35446ZM17.071 1.74757L18.2495 2.92608L10.5892 10.5864L9.41279 10.5885L9.41071 9.40792L17.071 1.74757Z" fill="white"/>
</svg>
